<?xml version="1.0" encoding="UTF-8"?> <svg xmlns="http://www.w3.org/2000/svg" xmlns:xlink="http://www.w3.org/1999/xlink" width="1487px" height="510px" viewBox="0 0 1487 510"> <!-- Generator: Sketch 49.3 (51167) - http://www.bohemiancoding.com/sketch --> <title>Play Store RU</title> <desc>Created with Sketch.</desc> <defs> <linearGradient x1="58.9170878%" y1="21.9790872%" x2="90.8103723%" y2="57.5246245%" id="linearGradient-1"> <stop stop-color="#FF177B" offset="0%"></stop> <stop stop-color="#FFEC73" offset="100%"></stop> </linearGradient> <linearGradient x1="48.5220199%" y1="22.2769931%" x2="44.2700739%" y2="65.0532849%" id="linearGradient-2"> <stop stop-color="#064AA2" offset="0%"></stop> <stop stop-color="#63FFD4" offset="100%"></stop> </linearGradient> <linearGradient x1="37.1029741%" y1="41.82684%" x2="0%" y2="54.4379351%" id="linearGradient-3"> <stop stop-color="#064AA2" offset="0%"></stop> <stop stop-color="#63FFD4" offset="100%"></stop> </linearGradient> <path d="M139,127 L5,0 C1.87378254,0.726186853 0,3.06462999 0,7 L0,127 L0,250 C0,253.338867 1.34597157,255.325411 3,256 L139,127 Z" id="path-4"></path> <path d="M5.53437056,128.785198 L82.986448,86.238085 C102.059222,75.6695888 117.195851,67.282093 117.195851,67.282093 L173.520199,36.9446714 L136.02203,0.507964851 L0.0236165533,129.524017 C1.53944448,130.011528 4.21113604,129.745054 6.29548251,128.716318" id="path-6"></path> <linearGradient x1="78.6453125%" y1="50%" x2="2.49516972%" y2="84.3623736%" id="linearGradient-8"> <stop stop-color="#FF4521" offset="0%"></stop> <stop stop-color="#8A33DB" offset="100%"></stop> </linearGradient> <linearGradient x1="46.825983%" y1="-24.1863374%" x2="50.9029721%" y2="100%" id="linearGradient-9"> <stop stop-color="#00A3B5" offset="0%"></stop> <stop stop-color="#D6FFA1" offset="100%"></stop> </linearGradient> <linearGradient x1="34.657701%" y1="-24.1863374%" x2="54.3647114%" y2="100%" id="linearGradient-10"> <stop stop-color="#00A3B5" offset="0%"></stop> <stop stop-color="#D6FFA1" offset="100%"></stop> </linearGradient> <path d="M8.12902383,2.14687426 C5.54941065,0.765297171 2.98636664,0.370077565 0.91303491,0.92865807 L135.024287,128.113403 L172.126971,93.0020155 L116.2,62.0225581 C116.2,62.0225581 63.4870167,32.817123 31.6586078,15.1823037 L8.12902383,2.14687426 Z" id="path-11"></path> </defs> <g id="Page-1" stroke="none" stroke-width="1" fill="none" fill-rule="evenodd"> <g id="Play-Store-RU" transform="translate(5.000000, 5.000000)"> <rect id="background" stroke="#FFFFFF" stroke-width="10" fill="#000000" fill-rule="nonzero" x="0" y="0" width="1477" height="500" rx="60"></rect> <g id="icon" transform="translate(60.000000, 178.000000)"> <path d="M120.179253,62.0225581 C120.179253,62.0225581 18.2738589,5.56224806 12.2887967,2.24515504 C6.29377593,-1.07193798 0.328630705,0.940232558 0.328630705,7.87325581 L0.328630705,128.404264 L0.328630705,251.385736 C0.328630705,256.575543 4.59087137,258.826783 9.79917012,255.947984 C14.9975104,253.069186 120.179253,194.785969 120.179253,194.785969 C120.179253,194.785969 134.46801,186.873586 141.612388,182.917395 C153.110334,176.550421 176.106224,163.816473 176.106224,163.816473 C176.106224,163.816473 223.558506,137.518798 229.872199,134.032364 C236.175934,130.535969 235.568465,125.744612 230.250622,122.985349 C224.922822,120.236047 176.106224,93.0020155 176.106224,93.0020155 L120.179253,62.0225581 Z" id="orange" fill="url(#linearGradient-1)" fill-rule="nonzero"></path> <g id="blue" transform="translate(0.000000, 1.000000)"> <g id="Clip-2" fill="url(#linearGradient-3)" fill-rule="nonzero"> <path d="M139,127 L5,0 C1.87378254,0.726186853 0,3.06462999 0,7 L0,127 L0,250 C0,253.338867 1.34597157,255.325411 3,256 L139,127 Z" id="path-3"></path> </g> <g id="Fill-1-Clipped"> <g> <mask id="mask-5" fill="white"> <use xlink:href="#path-4"></use> </mask> <g id="path-4"></g> <path d="M176,92 L120,61 C119.803881,61.451092 17.9382297,4.88708221 12,2 C5.96281885,-1.75928874 0,0.256577526 0,7 L0,128 C0,127.95472 0,245.952753 0,251 C0,256.361409 4.26057841,258.616784 9,256 C14.6631589,252.848612 119.803881,194.458347 120,194 L176,163 C175.709041,163.43197 223.142817,137.085995 229,134 C235.755324,130.09034 235.148092,125.290184 230,123 C224.5066,119.7715 175.709041,92.4874489 176,92" id="Fill-1" mask="url(#mask-5)"></path> </g> </g> </g> <g id="red" transform="translate(2.983402, 127.503876)"> <g id="Fill-7-Clipped"> <g> <mask id="mask-7" fill="white"> <use xlink:href="#path-6"></use> </mask> <g id="path-6"></g> <path d="M117.016598,-65.503876 C116.820479,-65.0527839 14.9548272,-121.616794 9.01659751,-124.503876 C2.97941636,-128.263165 -2.98340249,-126.247298 -2.98340249,-119.503876 L-2.98340249,1.49612403 C-2.98340249,1.45084368 -2.98340249,119.448877 -2.98340249,124.496124 C-2.98340249,129.857533 1.27717592,132.112908 6.01659751,129.496124 C11.6797564,126.344736 116.820479,67.9544713 117.016598,67.496124 L173.016598,36.496124 C172.725639,36.928094 220.159415,10.5821191 226.016598,7.49612403 C232.771921,3.58646438 232.164689,-1.21369242 227.016598,-3.50387597 C221.523198,-6.73237581 172.725639,-34.0164271 173.016598,-34.503876 L117.016598,-65.503876 Z" id="Fill-7" fill="url(#linearGradient-8)" fill-rule="nonzero" mask="url(#mask-7)"></path> </g> </g> </g> <g id="green" transform="translate(3.979253, 0.000000)"> <g id="Clip-5" fill="url(#linearGradient-10)" fill-rule="nonzero"> <path d="M8.12902383,2.14687426 C5.54941065,0.765297171 2.98636664,0.370077565 0.91303491,0.92865807 L135.024287,128.113403 L172.126971,93.0020155 L116.2,62.0225581 C116.2,62.0225581 63.4870167,32.817123 31.6586078,15.1823037 L8.12902383,2.14687426 Z" id="path-9"></path> </g> <g id="Fill-4-Clipped"> <g> <mask id="mask-12" fill="white"> <use xlink:href="#path-11"></use> </mask> <g id="path-11"></g> <path d="M172.020747,93 L116.020747,62 C115.824628,62.451092 13.9589766,5.88708221 8.02074689,3 C1.98356574,-0.75928874 -3.97925311,1.25657753 -3.97925311,8 L-3.97925311,129 C-3.97925311,128.95472 -3.97925311,246.952753 -3.97925311,252 C-3.97925311,257.361409 0.281325302,259.616784 5.02074689,257 C10.6839058,253.848612 115.824628,195.458347 116.020747,195 L172.020747,164 C171.729788,164.43197 219.163564,138.085995 225.020747,135 C231.776071,131.09034 231.168839,126.290184 226.020747,124 C220.527347,120.7715 171.729788,93.4874489 172.020747,93" id="Fill-4" mask="url(#mask-12)"></path> </g> </g> </g> </g> <g id="Google-play" transform="translate(347.000000, 60.000000)" fill="#FFFFFF"> <g id="Доступно-в" font-family="Roboto-Regular, Roboto" font-size="110" font-weight="normal"> <text id="Доступно"> <tspan x="0" y="102">Доступно</tspan> </text> <text id="в"> <tspan x="609.263673" y="102">в</tspan> </text> </g> <path d="M664.61527,286.869801 L653.541573,297.380368 C650.98241,298.79512 648.436969,300.437612 645.898389,301.603919 C638.207178,305.116643 630.385607,306 623.435387,306 C616.0392,306 604.444065,305.516914 592.615654,296.911085 C576.183495,285.268716 569,265.255161 569,247.815762 C569,211.708546 598.221113,194 622.056321,194 C630.385607,194 638.941308,196.097973 645.898389,200.521659 C657.46608,208.216526 660.457488,218.216403 662.117856,223.571754 L607.68933,245.690184 L589.864383,247.084232 C595.634506,276.690492 615.545206,293.909052 637.548519,293.909052 C648.539884,293.909052 656.697645,290.29971 664.183025,286.579949 C664.183025,286.579949 665.68559,285.79321 664.61527,286.869801 Z M631.359496,227.477536 C635.727713,225.851783 638,224.448356 638,221.182955 C638,211.817508 627.656008,201 615.311047,201 C606.167636,201 589,208.295044 589,233.626216 C589,237.579435 589.46124,241.789717 589.69186,246 L631.359496,227.477536 Z" id="Fill-1" fill-rule="nonzero"></path> <path d="M551.026121,287.60314 C551.026121,296.628579 552.626345,298.032995 560.210314,298.742087 C564.163004,299.210226 568.102018,299.416758 572,299.884896 L563.465471,305 L522.796525,305 C528.130605,298.032995 529.046973,297.337671 529.046973,292.69759 L529.046973,287.513643 L528.958072,149.38519 L511,149.38519 L528.287892,141 L561.290807,141 C554.137668,145.171942 551.997197,147.712283 551.08083,155.84275 L551.026121,287.60314" id="Fill-2" fill-rule="nonzero"></path> <path d="M487.929114,207.39776 C493.220316,211.782492 504.260152,221.088862 504.260152,238.737925 C504.260152,255.939566 494.640406,264.048223 484.938732,271.723225 C481.962004,274.745042 478.480052,278.021545 478.480052,283.087734 C478.480052,288.229641 481.962004,291.017422 484.467644,293.096212 L492.790192,299.573501 C502.908335,308.184646 512.132095,316.079918 512.132095,332.118262 C512.132095,353.966205 491.158454,376 451.525647,376 C418.139872,376 402,359.968539 402,342.780664 C402,334.417321 406.130551,322.570973 419.757955,314.455433 C434.040786,305.651552 453.389516,304.474489 463.753443,303.786148 C460.517276,299.573501 456.823676,295.161235 456.823676,287.961188 C456.823676,284.023878 457.997981,281.676635 459.131323,278.909505 C456.612028,279.150424 454.072251,279.398227 451.764605,279.398227 C427.329494,279.398227 413.517751,261.019522 413.517751,242.909271 C413.517751,232.226219 418.35152,220.372987 428.278497,211.782492 C441.414332,200.879171 457.076288,199 469.52256,199 L517,199 L502.239254,207.39776 L487.929114,207.39776 Z M471.720106,310.252274 C469.813618,310 468.671102,310 466.372304,310 C464.26622,310 451.719189,310.462503 442.000918,313.784116 C436.859594,315.697197 422,321.352348 422,338.149619 C422,354.911851 438.043406,367 462.862164,367 C485.161879,367 497,356.117163 497,341.464224 C497,329.404106 489.339635,323.041185 471.720106,310.252274 Z M478.235214,265.515284 C483.537729,260.169682 484,252.786026 484,248.593263 C484,231.938865 474.163154,206 455.094494,206 C449.146159,206 442.701564,209.012477 439.044188,213.671865 C435.162475,218.495945 434,224.754211 434,230.772302 C434,246.280724 442.959891,272 462.667573,272 C468.418763,272 474.605031,269.179663 478.235214,265.515284 Z" id="Fill-3" fill-rule="nonzero"></path> <path d="M344.336863,308 C307.636483,308 288,279.048704 288,252.8352 C288,222.206572 312.685864,196 347.798905,196 C381.741968,196 403,222.920478 403,251.185593 C403,278.792252 381.988279,308 344.336863,308 Z M373.038446,289.065395 C378.640643,281.558479 380,272.188737 380,263.055323 C380,242.397404 370.278541,203 341.546685,203 C333.905453,203 326.209298,206.023619 320.662024,210.95872 C311.613378,219.167671 310,229.482729 310,239.603163 C310,262.777289 321.314241,301 349.39388,301 C358.456257,301 367.704002,296.558408 373.038446,289.065395 Z" id="Fill-4" fill-rule="nonzero"></path> <path d="M221.332956,308 C184.61044,308 165,279.048704 165,252.8352 C165,222.206572 189.702994,196 224.816975,196 C258.753646,196 280,222.920478 280,251.185593 C280,278.792252 259.006904,308 221.332956,308 Z M250.048769,289.065395 C255.612501,281.558479 257,272.188737 257,263.055323 C257,242.397404 247.246296,203 218.527819,203 C210.855363,203 203.237857,206.023619 197.674124,210.95872 C188.607301,219.167671 187,229.482729 187,239.603163 C187,262.777289 198.367874,301 226.413208,301 C235.459425,301 244.697969,296.558408 250.048769,289.065395 Z" id="Fill-5" fill-rule="nonzero"></path> <path d="M149.774985,301.080409 L118.688962,308.244878 C106.093764,310.24346 94.7835087,312 82.8067322,312 C22.8472645,312 0,267.581676 0,232.817405 C0,190.363086 32.3709663,151 87.8090806,151 C99.5384883,151 110.821258,152.735793 121.100809,155.557321 C137.392798,160.163051 145.013134,165.840686 149.774985,169.167046 L131.717057,186.42816 L124.103592,188.143207 L129.531965,179.436579 C122.179612,172.209871 108.663651,158.869851 83.0128729,158.869851 C48.7179264,158.869851 22.8472645,185.107298 22.8472645,223.41231 C22.8472645,264.552682 52.3872315,303.251879 99.7652431,303.251879 C113.686614,303.251879 120.85344,300.437266 127.360616,297.809372 L127.360616,262.540269 L94.5361399,264.317555 L111.934418,254.912461 L158,254.912461 L152.365487,260.368799 C150.846917,261.668915 150.640776,262.111507 150.214752,263.854216 C149.987997,265.845883 149.774985,272.180491 149.774985,274.407285 L149.774985,301.080409" id="Fill-6" fill-rule="nonzero"></path> <path d="M725.702413,289.939774 L725.702413,349 L714,349 L714,198.714228 L725.702413,198.714228 L725.702413,215.831043 C733.325778,204.767987 747.256243,196 763.435327,196 C792.454844,196 812,218.064268 812,252.991916 C812,287.685934 792.454844,310.21059 763.435327,310.21059 C748.161175,310.21059 734.47751,302.315279 725.702413,289.939774 Z M800,253.892369 C800,227.290168 786.258322,207 761.892133,207 C746.760461,207 732.289381,218.999114 726,229.463618 L726,278.078082 C732.289381,288.563419 746.760461,301 761.892133,301 C786.258322,301 800,280.536234 800,253.892369 Z" id="Fill-7" fill-rule="nonzero"></path> <polygon id="Fill-8" fill-rule="nonzero" points="828 157 840 157 840 308 828 308"></polygon> <path d="M970.463271,338.601096 C972.96572,339.721396 977.237023,340.408697 979.945152,340.408697 C987.10284,340.408697 992.087169,337.473923 996.56415,327.109429 L1005.0999,307.720677 L959,198 L972.053869,198 L1011.59941,293.081173 L1050.76102,198 L1064,198 L1007.77375,330.74525 C1001.93928,344.422533 992.75906,351 980.150833,351 C976.366308,351 971.375122,350.326445 968.454456,349.426081 L970.463271,338.601096" id="Fill-9" fill-rule="nonzero"></path> <path d="M937.4375,307.851012 C936.651468,304.057462 936.058496,300.713056 935.62411,297.921445 C935.265569,295.136744 935.058719,292.289853 935.058719,289.394593 C931.025133,295.330222 925.309164,300.270821 918.00734,304.16111 C910.698621,308.07904 903.755338,310 894.233319,310 C882.766904,310 873.865436,307.173839 867.515125,301.438599 C861.185498,295.710268 858,287.950418 858,278.13141 C858,268.326221 862.612767,260.365984 871.810721,254.278337 C881.008674,248.16305 892.895685,245.122682 907.609653,245.122682 L935.058719,245.122682 L935.058719,231.530852 C935.058719,223.701903 932.397242,217.545157 927.081183,213.081343 C921.74444,208.610619 914.25645,206.351073 904.548265,206.351073 C895.674377,206.351073 888.475979,208.417142 882.99444,212.43872 C877.561165,216.543217 874.823843,221.628925 874.823843,227.758031 L862.778247,227.758031 L862.530027,227.170687 C862.095641,218.906413 865.867215,211.657898 873.886121,205.397503 C881.870552,199.144017 892.330294,196 905.203292,196 C918.03492,196 928.418817,199.095648 936.244662,205.273124 C944.063612,211.388411 947.986877,220.226209 947.986877,231.77961 L947.986877,285.746151 C947.986877,289.622621 948.173043,293.367802 948.655694,297.016244 C949.152135,300.671597 949.945062,304.320039 951,307.851012 L937.4375,307.851012 Z M895.6493,300 C905.638536,300 912.817008,297.749653 920.153929,293.297577 C927.442626,288.873283 932.402799,283.101559 935,276.11437 L935,255 L907.443488,255 C896.9169,255 888.202153,257.347585 881.34747,262.084427 C874.47901,266.807378 871,272.523538 871,279.170397 C871,285.442198 873.204521,290.456861 877.586006,294.256058 C881.98127,298.096929 887.98859,300 895.6493,300 Z" id="Fill-10" fill-rule="nonzero"></path> </g> </g> </g> </svg> 